<svg xmlns="http://www.w3.org/2000/svg" data-name="Layer 1" viewBox="0 0 146 48"><path d="M64 18.3h8.7l.9-4.4H62.3c-2.4 0-4.4 2-4.4 4.4v11.3c0 2.4 2 4.4 4.4 4.4h11.3l-.9-4.4H64c-.5 0-.9-.4-.9-.9v-9.6c0-.5.4-.9.9-.9Zm72.4 11.4c-.5 0-.9-.4-.9-.9v-9.6c0-.5.4-.9.9-.9h8.7l.9-4.4h-11.3c-2.4 0-4.4 2-4.4 4.4v11.3c0 2.4 2 4.4 4.4 4.4H146l-.9-4.4h-8.7ZM112 14h-7V5.2h-5.2V34H112c2.4 0 4.4-2 4.4-4.4V18.3c0-2.4-2-4.4-4.4-4.4Zm-.9 14.8c0 .5-.4.9-.9.9H105V18.4h5.2c.5 0 .9.4.9.9v9.6Zm-21 0c0 .5-.4.9-.9.9H84c-.5 0-.9-.4-.9-.9V14h-5.2v15.7c0 2.4 2 4.4 4.4 4.4H91c2.4 0 4.4-2 4.4-4.4V14h-5.2v14.8zM120.7 14h5.2v20.1h-5.2zM24 0 0 12v24l24 12 24-12V12zm18.8 32.8L24 42.2 5.2 32.8V15.2L24 5.9 42.1 15l-12.3 6.1-5.9-2.9-7.9 3.9V26l7.9 3.9 18.8-9.4v12.3z" style="fill:#fff;stroke-width:0"></path></svg>